# xmcd
#
# Track frame offsets: 
#        150
#        21452
#        39642
#        57505
#        70565
#        88077
#        105685
#        123962
#        146240
#        165075
#        185797
#        204705
#        226807
#        248552
#        267335
#        289997
#
# Disc length: 4112 seconds
#
# Revision: 4
# Processed by: cddbd v1.5.2PL0 Copyright (c) Steve Scherf et al.
# Submitted via: ExactAudioCopy v1.0b2
#
DISCID=eb100e10
DTITLE=Various Artist - Songs for Lovers
DYEAR=1900
DGENRE=Oldies
TTITLE0=Boat on the river (Boney M)
TTITLE1=Woman in Love (B.Straisend)
TTITLE2=Together We are Beautiful
TTITLE3=What's Another Year
TTITLE4=Do That to Me One More Time
TTITLE5=Suddenly
TTITLE6=Lady
TTITLE7=Nikita (Elton John)
TTITLE8=Hello
TTITLE9=One Day I'll Fly Away
TTITLE10=Say You Say Me (Lional Rechie)
TTITLE11=Another Day In Paradise (Phil Collins)
TTITLE12=The greatest love of all
TTITLE13=Private dancer ( Tina Turner )
TTITLE14=Careless whisper ( George Michle )
TTITLE15=Take My Breath Away
EXTD=
EXTT0=
EXTT1=
EXTT2=
EXTT3=
EXTT4=
EXTT5=
EXTT6=
EXTT7=
EXTT8=
EXTT9=
EXTT10=
EXTT11=
EXTT12=
EXTT13=
EXTT14=
EXTT15=
PLAYORDER=
